<mxfile host="app.diagrams.net" modified="2023-07-18T19:27:36.239Z" agent="Mozilla/5.0 (Windows NT 10.0; Win64; x64) AppleWebKit/537.36 (KHTML, like Gecko) Chrome/114.0.0.0 Safari/537.36" etag="cHVb-czcVfwSsN-GB18j" version="21.6.2" type="device">
  <diagram name="Page-1" id="e7e014a7-5840-1c2e-5031-d8a46d1fe8dd">
    <mxGraphModel dx="1434" dy="1582" grid="1" gridSize="10" guides="1" tooltips="1" connect="1" arrows="1" fold="1" page="1" pageScale="1" pageWidth="1169" pageHeight="826" background="none" math="1" shadow="0">
      <root>
        <mxCell id="0" />
        <mxCell id="1" parent="0" />
        <mxCell id="g9GSSYHI3RNmdpma8yQ5-24" value="&lt;p style=&quot;line-height: 120%;&quot;&gt;&lt;br&gt;&lt;/p&gt;" style="rounded=1;whiteSpace=wrap;html=1;arcSize=12;absoluteArcSize=1;fillColor=#CFCFCF;" vertex="1" parent="1">
          <mxGeometry x="220" y="-40" width="760" height="380" as="geometry" />
        </mxCell>
        <mxCell id="g9GSSYHI3RNmdpma8yQ5-26" value="&lt;font style=&quot;font-size: 18px;&quot;&gt;&lt;b&gt;CONCAT&lt;/b&gt;&lt;/font&gt;" style="rounded=0;whiteSpace=wrap;html=1;" vertex="1" parent="1">
          <mxGeometry x="305" y="200" width="110" height="55" as="geometry" />
        </mxCell>
        <mxCell id="g9GSSYHI3RNmdpma8yQ5-27" value="&lt;b style=&quot;border-color: var(--border-color); font-size: 18px;&quot;&gt;CONCAT&lt;/b&gt;" style="rounded=0;whiteSpace=wrap;html=1;" vertex="1" parent="1">
          <mxGeometry x="465" y="200" width="110" height="55" as="geometry" />
        </mxCell>
        <mxCell id="g9GSSYHI3RNmdpma8yQ5-28" value="&lt;b style=&quot;border-color: var(--border-color); font-size: 18px;&quot;&gt;CONCAT&lt;/b&gt;" style="rounded=0;whiteSpace=wrap;html=1;" vertex="1" parent="1">
          <mxGeometry x="625" y="200" width="110" height="55" as="geometry" />
        </mxCell>
        <mxCell id="g9GSSYHI3RNmdpma8yQ5-29" value="&lt;b style=&quot;border-color: var(--border-color); font-size: 18px;&quot;&gt;CONCAT&lt;/b&gt;" style="rounded=0;whiteSpace=wrap;html=1;" vertex="1" parent="1">
          <mxGeometry x="785" y="200" width="110" height="55" as="geometry" />
        </mxCell>
        <mxCell id="g9GSSYHI3RNmdpma8yQ5-47" style="edgeStyle=orthogonalEdgeStyle;rounded=0;orthogonalLoop=1;jettySize=auto;html=1;entryX=0.092;entryY=0.982;entryDx=0;entryDy=0;entryPerimeter=0;" edge="1" parent="1" source="g9GSSYHI3RNmdpma8yQ5-30" target="g9GSSYHI3RNmdpma8yQ5-42">
          <mxGeometry relative="1" as="geometry" />
        </mxCell>
        <mxCell id="g9GSSYHI3RNmdpma8yQ5-30" value="&lt;b style=&quot;border-color: var(--border-color); font-size: 18px;&quot;&gt;ANN&lt;/b&gt;" style="rounded=0;whiteSpace=wrap;html=1;" vertex="1" parent="1">
          <mxGeometry x="305" y="145" width="110" height="55" as="geometry" />
        </mxCell>
        <mxCell id="g9GSSYHI3RNmdpma8yQ5-45" style="edgeStyle=orthogonalEdgeStyle;rounded=0;orthogonalLoop=1;jettySize=auto;html=1;entryX=0.363;entryY=0.964;entryDx=0;entryDy=0;entryPerimeter=0;" edge="1" parent="1" source="g9GSSYHI3RNmdpma8yQ5-31" target="g9GSSYHI3RNmdpma8yQ5-42">
          <mxGeometry relative="1" as="geometry" />
        </mxCell>
        <mxCell id="g9GSSYHI3RNmdpma8yQ5-31" value="&lt;b style=&quot;border-color: var(--border-color); font-size: 18px;&quot;&gt;ANN&lt;/b&gt;" style="rounded=0;whiteSpace=wrap;html=1;" vertex="1" parent="1">
          <mxGeometry x="465" y="145" width="110" height="55" as="geometry" />
        </mxCell>
        <mxCell id="g9GSSYHI3RNmdpma8yQ5-48" style="edgeStyle=orthogonalEdgeStyle;rounded=0;orthogonalLoop=1;jettySize=auto;html=1;entryX=0.636;entryY=1.018;entryDx=0;entryDy=0;entryPerimeter=0;" edge="1" parent="1" source="g9GSSYHI3RNmdpma8yQ5-32" target="g9GSSYHI3RNmdpma8yQ5-42">
          <mxGeometry relative="1" as="geometry" />
        </mxCell>
        <mxCell id="g9GSSYHI3RNmdpma8yQ5-32" value="&lt;b style=&quot;border-color: var(--border-color); font-size: 18px;&quot;&gt;ANN&lt;/b&gt;" style="rounded=0;whiteSpace=wrap;html=1;" vertex="1" parent="1">
          <mxGeometry x="625" y="145" width="110" height="55" as="geometry" />
        </mxCell>
        <mxCell id="g9GSSYHI3RNmdpma8yQ5-49" style="edgeStyle=orthogonalEdgeStyle;rounded=0;orthogonalLoop=1;jettySize=auto;html=1;entryX=0.908;entryY=0.982;entryDx=0;entryDy=0;entryPerimeter=0;" edge="1" parent="1" source="g9GSSYHI3RNmdpma8yQ5-33" target="g9GSSYHI3RNmdpma8yQ5-42">
          <mxGeometry relative="1" as="geometry" />
        </mxCell>
        <mxCell id="g9GSSYHI3RNmdpma8yQ5-33" value="&lt;b style=&quot;border-color: var(--border-color); font-size: 18px;&quot;&gt;ANN&lt;/b&gt;" style="rounded=0;whiteSpace=wrap;html=1;" vertex="1" parent="1">
          <mxGeometry x="785" y="145" width="110" height="55" as="geometry" />
        </mxCell>
        <mxCell id="g9GSSYHI3RNmdpma8yQ5-22" value="" style="rounded=1;whiteSpace=wrap;html=1;arcSize=12;absoluteArcSize=1;fillColor=#CFCFCF;" vertex="1" parent="1">
          <mxGeometry x="220" y="400" width="760" height="500" as="geometry" />
        </mxCell>
        <mxCell id="G1SIOI9YLhnr2MAVJD6w-42" value="&lt;font style=&quot;font-size: 18px;&quot;&gt;&lt;b&gt;LSTM&lt;/b&gt;&lt;/font&gt;" style="rounded=0;whiteSpace=wrap;html=1;" parent="1" vertex="1">
          <mxGeometry x="300" y="600" width="120" height="60" as="geometry" />
        </mxCell>
        <mxCell id="G1SIOI9YLhnr2MAVJD6w-61" style="edgeStyle=orthogonalEdgeStyle;rounded=0;orthogonalLoop=1;jettySize=auto;html=1;" parent="1" source="G1SIOI9YLhnr2MAVJD6w-43" target="G1SIOI9YLhnr2MAVJD6w-42" edge="1">
          <mxGeometry relative="1" as="geometry" />
        </mxCell>
        <mxCell id="G1SIOI9YLhnr2MAVJD6w-43" value="&lt;b style=&quot;border-color: var(--border-color); font-size: 18px;&quot;&gt;LSTM&lt;/b&gt;" style="rounded=0;whiteSpace=wrap;html=1;" parent="1" vertex="1">
          <mxGeometry x="460" y="600" width="120" height="60" as="geometry" />
        </mxCell>
        <mxCell id="G1SIOI9YLhnr2MAVJD6w-60" style="edgeStyle=orthogonalEdgeStyle;rounded=0;orthogonalLoop=1;jettySize=auto;html=1;entryX=1;entryY=0.5;entryDx=0;entryDy=0;" parent="1" source="G1SIOI9YLhnr2MAVJD6w-44" target="G1SIOI9YLhnr2MAVJD6w-43" edge="1">
          <mxGeometry relative="1" as="geometry" />
        </mxCell>
        <mxCell id="G1SIOI9YLhnr2MAVJD6w-44" value="&lt;b style=&quot;border-color: var(--border-color); font-size: 18px;&quot;&gt;LSTM&lt;/b&gt;" style="rounded=0;whiteSpace=wrap;html=1;" parent="1" vertex="1">
          <mxGeometry x="620" y="600" width="120" height="60" as="geometry" />
        </mxCell>
        <mxCell id="G1SIOI9YLhnr2MAVJD6w-59" style="edgeStyle=orthogonalEdgeStyle;rounded=0;orthogonalLoop=1;jettySize=auto;html=1;entryX=1;entryY=0.5;entryDx=0;entryDy=0;" parent="1" source="G1SIOI9YLhnr2MAVJD6w-45" target="G1SIOI9YLhnr2MAVJD6w-44" edge="1">
          <mxGeometry relative="1" as="geometry" />
        </mxCell>
        <mxCell id="G1SIOI9YLhnr2MAVJD6w-45" value="&lt;b style=&quot;border-color: var(--border-color); font-size: 18px;&quot;&gt;LSTM&lt;/b&gt;" style="rounded=0;whiteSpace=wrap;html=1;" parent="1" vertex="1">
          <mxGeometry x="780" y="600" width="120" height="60" as="geometry" />
        </mxCell>
        <mxCell id="G1SIOI9YLhnr2MAVJD6w-56" style="edgeStyle=orthogonalEdgeStyle;rounded=0;orthogonalLoop=1;jettySize=auto;html=1;" parent="1" source="G1SIOI9YLhnr2MAVJD6w-51" target="G1SIOI9YLhnr2MAVJD6w-52" edge="1">
          <mxGeometry relative="1" as="geometry" />
        </mxCell>
        <mxCell id="g9GSSYHI3RNmdpma8yQ5-17" style="edgeStyle=orthogonalEdgeStyle;rounded=0;orthogonalLoop=1;jettySize=auto;html=1;entryX=0.5;entryY=1;entryDx=0;entryDy=0;" edge="1" parent="1" source="G1SIOI9YLhnr2MAVJD6w-51" target="g9GSSYHI3RNmdpma8yQ5-11">
          <mxGeometry relative="1" as="geometry" />
        </mxCell>
        <mxCell id="G1SIOI9YLhnr2MAVJD6w-51" value="&lt;b style=&quot;border-color: var(--border-color); font-size: 18px;&quot;&gt;LSTM&lt;/b&gt;" style="rounded=0;whiteSpace=wrap;html=1;" parent="1" vertex="1">
          <mxGeometry x="300" y="540" width="120" height="60" as="geometry" />
        </mxCell>
        <mxCell id="G1SIOI9YLhnr2MAVJD6w-57" style="edgeStyle=orthogonalEdgeStyle;rounded=0;orthogonalLoop=1;jettySize=auto;html=1;entryX=0;entryY=0.5;entryDx=0;entryDy=0;" parent="1" source="G1SIOI9YLhnr2MAVJD6w-52" target="G1SIOI9YLhnr2MAVJD6w-53" edge="1">
          <mxGeometry relative="1" as="geometry" />
        </mxCell>
        <mxCell id="g9GSSYHI3RNmdpma8yQ5-18" style="edgeStyle=orthogonalEdgeStyle;rounded=0;orthogonalLoop=1;jettySize=auto;html=1;entryX=0.5;entryY=1;entryDx=0;entryDy=0;" edge="1" parent="1" source="G1SIOI9YLhnr2MAVJD6w-52" target="g9GSSYHI3RNmdpma8yQ5-12">
          <mxGeometry relative="1" as="geometry" />
        </mxCell>
        <mxCell id="G1SIOI9YLhnr2MAVJD6w-52" value="&lt;b style=&quot;border-color: var(--border-color); font-size: 18px;&quot;&gt;LSTM&lt;/b&gt;" style="rounded=0;whiteSpace=wrap;html=1;" parent="1" vertex="1">
          <mxGeometry x="460" y="540" width="120" height="60" as="geometry" />
        </mxCell>
        <mxCell id="G1SIOI9YLhnr2MAVJD6w-58" style="edgeStyle=orthogonalEdgeStyle;rounded=0;orthogonalLoop=1;jettySize=auto;html=1;" parent="1" source="G1SIOI9YLhnr2MAVJD6w-53" target="G1SIOI9YLhnr2MAVJD6w-54" edge="1">
          <mxGeometry relative="1" as="geometry" />
        </mxCell>
        <mxCell id="g9GSSYHI3RNmdpma8yQ5-19" style="edgeStyle=orthogonalEdgeStyle;rounded=0;orthogonalLoop=1;jettySize=auto;html=1;entryX=0.5;entryY=1;entryDx=0;entryDy=0;" edge="1" parent="1" source="G1SIOI9YLhnr2MAVJD6w-53" target="g9GSSYHI3RNmdpma8yQ5-13">
          <mxGeometry relative="1" as="geometry" />
        </mxCell>
        <mxCell id="G1SIOI9YLhnr2MAVJD6w-53" value="&lt;b style=&quot;border-color: var(--border-color); font-size: 18px;&quot;&gt;LSTM&lt;/b&gt;" style="rounded=0;whiteSpace=wrap;html=1;" parent="1" vertex="1">
          <mxGeometry x="620" y="540" width="120" height="60" as="geometry" />
        </mxCell>
        <mxCell id="g9GSSYHI3RNmdpma8yQ5-20" style="edgeStyle=orthogonalEdgeStyle;rounded=0;orthogonalLoop=1;jettySize=auto;html=1;" edge="1" parent="1" source="G1SIOI9YLhnr2MAVJD6w-54" target="g9GSSYHI3RNmdpma8yQ5-14">
          <mxGeometry relative="1" as="geometry" />
        </mxCell>
        <mxCell id="G1SIOI9YLhnr2MAVJD6w-54" value="&lt;b style=&quot;border-color: var(--border-color); font-size: 18px;&quot;&gt;LSTM&lt;/b&gt;" style="rounded=0;whiteSpace=wrap;html=1;" parent="1" vertex="1">
          <mxGeometry x="780" y="540" width="120" height="60" as="geometry" />
        </mxCell>
        <mxCell id="g9GSSYHI3RNmdpma8yQ5-7" style="edgeStyle=orthogonalEdgeStyle;rounded=0;orthogonalLoop=1;jettySize=auto;html=1;entryX=0.5;entryY=1;entryDx=0;entryDy=0;" edge="1" parent="1" source="g9GSSYHI3RNmdpma8yQ5-1" target="G1SIOI9YLhnr2MAVJD6w-42">
          <mxGeometry relative="1" as="geometry" />
        </mxCell>
        <mxCell id="g9GSSYHI3RNmdpma8yQ5-1" value="$$x(1)$$" style="text;html=1;strokeColor=none;fillColor=none;align=center;verticalAlign=middle;whiteSpace=wrap;rounded=0;fontStyle=1;fontSize=20;" vertex="1" parent="1">
          <mxGeometry x="330" y="780" width="60" height="30" as="geometry" />
        </mxCell>
        <mxCell id="g9GSSYHI3RNmdpma8yQ5-8" style="edgeStyle=orthogonalEdgeStyle;rounded=0;orthogonalLoop=1;jettySize=auto;html=1;entryX=0.5;entryY=1;entryDx=0;entryDy=0;" edge="1" parent="1" source="g9GSSYHI3RNmdpma8yQ5-2" target="G1SIOI9YLhnr2MAVJD6w-43">
          <mxGeometry relative="1" as="geometry" />
        </mxCell>
        <mxCell id="g9GSSYHI3RNmdpma8yQ5-2" value="$$x(2)$$" style="text;html=1;strokeColor=none;fillColor=none;align=center;verticalAlign=middle;whiteSpace=wrap;rounded=0;fontStyle=1;fontSize=20;" vertex="1" parent="1">
          <mxGeometry x="490" y="780" width="60" height="30" as="geometry" />
        </mxCell>
        <mxCell id="g9GSSYHI3RNmdpma8yQ5-9" style="edgeStyle=orthogonalEdgeStyle;rounded=0;orthogonalLoop=1;jettySize=auto;html=1;" edge="1" parent="1" source="g9GSSYHI3RNmdpma8yQ5-3" target="G1SIOI9YLhnr2MAVJD6w-44">
          <mxGeometry relative="1" as="geometry" />
        </mxCell>
        <mxCell id="g9GSSYHI3RNmdpma8yQ5-3" value="$$x(t)$$" style="text;html=1;strokeColor=none;fillColor=none;align=center;verticalAlign=middle;whiteSpace=wrap;rounded=0;fontStyle=1;fontSize=20;" vertex="1" parent="1">
          <mxGeometry x="650" y="780" width="60" height="30" as="geometry" />
        </mxCell>
        <mxCell id="g9GSSYHI3RNmdpma8yQ5-10" style="edgeStyle=orthogonalEdgeStyle;rounded=0;orthogonalLoop=1;jettySize=auto;html=1;" edge="1" parent="1" source="g9GSSYHI3RNmdpma8yQ5-4" target="G1SIOI9YLhnr2MAVJD6w-45">
          <mxGeometry relative="1" as="geometry" />
        </mxCell>
        <mxCell id="g9GSSYHI3RNmdpma8yQ5-4" value="$$x(T_x)$$" style="text;html=1;strokeColor=none;fillColor=none;align=center;verticalAlign=middle;whiteSpace=wrap;rounded=0;fontStyle=1;fontSize=20;" vertex="1" parent="1">
          <mxGeometry x="810" y="780" width="60" height="30" as="geometry" />
        </mxCell>
        <mxCell id="g9GSSYHI3RNmdpma8yQ5-5" value="" style="verticalLabelPosition=bottom;verticalAlign=top;html=1;shape=mxgraph.flowchart.parallel_mode;pointerEvents=1;fillColor=none;fillStyle=solid;strokeColor=none;shadow=0;perimeterSpacing=0;fontColor=#ffffff;" vertex="1" parent="1">
          <mxGeometry x="550" y="775" width="95" height="40" as="geometry" />
        </mxCell>
        <mxCell id="g9GSSYHI3RNmdpma8yQ5-6" value="" style="verticalLabelPosition=bottom;verticalAlign=top;html=1;shape=mxgraph.flowchart.parallel_mode;pointerEvents=1;fillColor=none;fillStyle=solid;strokeColor=none;shadow=0;perimeterSpacing=0;fontColor=#ffffff;" vertex="1" parent="1">
          <mxGeometry x="715" y="775" width="95" height="40" as="geometry" />
        </mxCell>
        <mxCell id="g9GSSYHI3RNmdpma8yQ5-35" style="edgeStyle=orthogonalEdgeStyle;rounded=0;orthogonalLoop=1;jettySize=auto;html=1;entryX=0.5;entryY=1;entryDx=0;entryDy=0;" edge="1" parent="1" source="g9GSSYHI3RNmdpma8yQ5-11" target="g9GSSYHI3RNmdpma8yQ5-26">
          <mxGeometry relative="1" as="geometry" />
        </mxCell>
        <mxCell id="g9GSSYHI3RNmdpma8yQ5-65" style="edgeStyle=orthogonalEdgeStyle;rounded=0;orthogonalLoop=1;jettySize=auto;html=1;entryX=1;entryY=0.5;entryDx=0;entryDy=0;" edge="1" parent="1" source="g9GSSYHI3RNmdpma8yQ5-11" target="g9GSSYHI3RNmdpma8yQ5-54">
          <mxGeometry relative="1" as="geometry">
            <Array as="points">
              <mxPoint x="360" y="360" />
              <mxPoint x="1030" y="360" />
              <mxPoint x="1030" y="-132" />
            </Array>
          </mxGeometry>
        </mxCell>
        <mxCell id="g9GSSYHI3RNmdpma8yQ5-11" value="$$h(1)$$" style="text;html=1;strokeColor=none;fillColor=none;align=center;verticalAlign=middle;whiteSpace=wrap;rounded=0;fontStyle=1;fontSize=20;" vertex="1" parent="1">
          <mxGeometry x="330" y="445" width="60" height="30" as="geometry" />
        </mxCell>
        <mxCell id="g9GSSYHI3RNmdpma8yQ5-36" style="edgeStyle=orthogonalEdgeStyle;rounded=0;orthogonalLoop=1;jettySize=auto;html=1;" edge="1" parent="1" source="g9GSSYHI3RNmdpma8yQ5-12" target="g9GSSYHI3RNmdpma8yQ5-27">
          <mxGeometry relative="1" as="geometry" />
        </mxCell>
        <mxCell id="g9GSSYHI3RNmdpma8yQ5-64" style="edgeStyle=orthogonalEdgeStyle;rounded=0;orthogonalLoop=1;jettySize=auto;html=1;entryX=1;entryY=0.5;entryDx=0;entryDy=0;" edge="1" parent="1" source="g9GSSYHI3RNmdpma8yQ5-12" target="g9GSSYHI3RNmdpma8yQ5-54">
          <mxGeometry relative="1" as="geometry">
            <Array as="points">
              <mxPoint x="520" y="360" />
              <mxPoint x="1030" y="360" />
              <mxPoint x="1030" y="-132" />
            </Array>
          </mxGeometry>
        </mxCell>
        <mxCell id="g9GSSYHI3RNmdpma8yQ5-12" value="$$h(2)$$" style="text;html=1;strokeColor=none;fillColor=none;align=center;verticalAlign=middle;whiteSpace=wrap;rounded=0;fontStyle=1;fontSize=20;" vertex="1" parent="1">
          <mxGeometry x="490" y="445" width="60" height="30" as="geometry" />
        </mxCell>
        <mxCell id="g9GSSYHI3RNmdpma8yQ5-37" style="edgeStyle=orthogonalEdgeStyle;rounded=0;orthogonalLoop=1;jettySize=auto;html=1;" edge="1" parent="1" source="g9GSSYHI3RNmdpma8yQ5-13" target="g9GSSYHI3RNmdpma8yQ5-28">
          <mxGeometry relative="1" as="geometry" />
        </mxCell>
        <mxCell id="g9GSSYHI3RNmdpma8yQ5-63" style="edgeStyle=orthogonalEdgeStyle;rounded=0;orthogonalLoop=1;jettySize=auto;html=1;entryX=1;entryY=0.5;entryDx=0;entryDy=0;" edge="1" parent="1" source="g9GSSYHI3RNmdpma8yQ5-13" target="g9GSSYHI3RNmdpma8yQ5-54">
          <mxGeometry relative="1" as="geometry">
            <Array as="points">
              <mxPoint x="680" y="360" />
              <mxPoint x="1030" y="360" />
              <mxPoint x="1030" y="-132" />
            </Array>
          </mxGeometry>
        </mxCell>
        <mxCell id="g9GSSYHI3RNmdpma8yQ5-13" value="$$h(t)$$" style="text;html=1;strokeColor=none;fillColor=none;align=center;verticalAlign=middle;whiteSpace=wrap;rounded=0;fontStyle=1;fontSize=20;" vertex="1" parent="1">
          <mxGeometry x="650" y="445" width="60" height="30" as="geometry" />
        </mxCell>
        <mxCell id="g9GSSYHI3RNmdpma8yQ5-38" style="edgeStyle=orthogonalEdgeStyle;rounded=0;orthogonalLoop=1;jettySize=auto;html=1;" edge="1" parent="1" source="g9GSSYHI3RNmdpma8yQ5-14" target="g9GSSYHI3RNmdpma8yQ5-29">
          <mxGeometry relative="1" as="geometry" />
        </mxCell>
        <mxCell id="g9GSSYHI3RNmdpma8yQ5-62" style="edgeStyle=orthogonalEdgeStyle;rounded=0;orthogonalLoop=1;jettySize=auto;html=1;entryX=1;entryY=0.5;entryDx=0;entryDy=0;" edge="1" parent="1" source="g9GSSYHI3RNmdpma8yQ5-14" target="g9GSSYHI3RNmdpma8yQ5-54">
          <mxGeometry relative="1" as="geometry">
            <Array as="points">
              <mxPoint x="840" y="360" />
              <mxPoint x="1030" y="360" />
              <mxPoint x="1030" y="-132" />
            </Array>
          </mxGeometry>
        </mxCell>
        <mxCell id="g9GSSYHI3RNmdpma8yQ5-14" value="$$h(T_x)$$" style="text;html=1;strokeColor=none;fillColor=none;align=center;verticalAlign=middle;whiteSpace=wrap;rounded=0;fontStyle=1;fontSize=20;" vertex="1" parent="1">
          <mxGeometry x="810" y="445" width="60" height="30" as="geometry" />
        </mxCell>
        <mxCell id="g9GSSYHI3RNmdpma8yQ5-21" value="&lt;font style=&quot;font-size: 16px;&quot;&gt;h = encoder hidden state&lt;br&gt;s = decoder hidden state&lt;br&gt;x = input&lt;br&gt;Tx = number of samples (timesteps)&lt;br&gt;t = input sequence&lt;br&gt;t&#39; = output sequence&lt;br&gt;&lt;/font&gt;" style="shape=note;whiteSpace=wrap;html=1;backgroundOutline=1;darkOpacity=0.05;" vertex="1" parent="1">
          <mxGeometry x="1180" y="280" width="190" height="260" as="geometry" />
        </mxCell>
        <mxCell id="g9GSSYHI3RNmdpma8yQ5-23" value="&lt;font style=&quot;font-size: 22px;&quot;&gt;&amp;nbsp;ENCODER&lt;/font&gt;" style="text;html=1;strokeColor=none;fillColor=none;align=center;verticalAlign=middle;whiteSpace=wrap;rounded=0;fontStyle=1" vertex="1" parent="1">
          <mxGeometry x="515" y="850" width="170" height="30" as="geometry" />
        </mxCell>
        <mxCell id="g9GSSYHI3RNmdpma8yQ5-25" value="" style="rounded=1;whiteSpace=wrap;html=1;arcSize=12;absoluteArcSize=1;fillColor=#CFCFCF;" vertex="1" parent="1">
          <mxGeometry x="217.5" y="-400" width="760" height="180" as="geometry" />
        </mxCell>
        <mxCell id="g9GSSYHI3RNmdpma8yQ5-34" value="&lt;font style=&quot;font-size: 22px;&quot;&gt;ATTENTION&lt;/font&gt;" style="text;html=1;strokeColor=none;fillColor=none;align=center;verticalAlign=middle;whiteSpace=wrap;rounded=0;fontStyle=1" vertex="1" parent="1">
          <mxGeometry x="512.5" y="280" width="170" height="30" as="geometry" />
        </mxCell>
        <mxCell id="g9GSSYHI3RNmdpma8yQ5-41" style="edgeStyle=orthogonalEdgeStyle;rounded=0;orthogonalLoop=1;jettySize=auto;html=1;" edge="1" parent="1" source="g9GSSYHI3RNmdpma8yQ5-39">
          <mxGeometry relative="1" as="geometry">
            <mxPoint x="840" y="380" as="targetPoint" />
            <Array as="points">
              <mxPoint x="90" y="380" />
              <mxPoint x="840" y="380" />
            </Array>
          </mxGeometry>
        </mxCell>
        <mxCell id="g9GSSYHI3RNmdpma8yQ5-66" style="edgeStyle=orthogonalEdgeStyle;rounded=0;orthogonalLoop=1;jettySize=auto;html=1;" edge="1" parent="1" target="g9GSSYHI3RNmdpma8yQ5-60">
          <mxGeometry relative="1" as="geometry">
            <mxPoint x="150" y="-280" as="sourcePoint" />
          </mxGeometry>
        </mxCell>
        <mxCell id="g9GSSYHI3RNmdpma8yQ5-39" value="$$s(t-1)$$" style="text;html=1;strokeColor=none;fillColor=none;align=center;verticalAlign=middle;whiteSpace=wrap;rounded=0;fontStyle=1;fontSize=20;" vertex="1" parent="1">
          <mxGeometry x="70" y="-295" width="60" height="30" as="geometry" />
        </mxCell>
        <mxCell id="g9GSSYHI3RNmdpma8yQ5-42" value="&lt;b style=&quot;border-color: var(--border-color); font-size: 18px;&quot;&gt;SOFTMAX OVER TIME&lt;/b&gt;" style="rounded=0;whiteSpace=wrap;html=1;" vertex="1" parent="1">
          <mxGeometry x="305" y="60" width="590" height="55" as="geometry" />
        </mxCell>
        <mxCell id="g9GSSYHI3RNmdpma8yQ5-55" style="edgeStyle=orthogonalEdgeStyle;rounded=0;orthogonalLoop=1;jettySize=auto;html=1;" edge="1" parent="1" source="g9GSSYHI3RNmdpma8yQ5-50" target="g9GSSYHI3RNmdpma8yQ5-54">
          <mxGeometry relative="1" as="geometry">
            <Array as="points">
              <mxPoint x="360" y="-70" />
              <mxPoint x="598" y="-70" />
            </Array>
          </mxGeometry>
        </mxCell>
        <mxCell id="g9GSSYHI3RNmdpma8yQ5-71" style="edgeStyle=orthogonalEdgeStyle;rounded=0;orthogonalLoop=1;jettySize=auto;html=1;entryX=0.093;entryY=-0.036;entryDx=0;entryDy=0;entryPerimeter=0;endArrow=none;endFill=0;startArrow=classic;startFill=1;" edge="1" parent="1" source="g9GSSYHI3RNmdpma8yQ5-50" target="g9GSSYHI3RNmdpma8yQ5-42">
          <mxGeometry relative="1" as="geometry" />
        </mxCell>
        <mxCell id="g9GSSYHI3RNmdpma8yQ5-50" value="$$\alpha(1)$$" style="text;html=1;strokeColor=none;fillColor=none;align=center;verticalAlign=middle;whiteSpace=wrap;rounded=0;fontStyle=1;fontSize=20;" vertex="1" parent="1">
          <mxGeometry x="330" width="60" height="30" as="geometry" />
        </mxCell>
        <mxCell id="g9GSSYHI3RNmdpma8yQ5-56" style="edgeStyle=orthogonalEdgeStyle;rounded=0;orthogonalLoop=1;jettySize=auto;html=1;" edge="1" parent="1" source="g9GSSYHI3RNmdpma8yQ5-51" target="g9GSSYHI3RNmdpma8yQ5-54">
          <mxGeometry relative="1" as="geometry">
            <Array as="points">
              <mxPoint x="520" y="-70" />
              <mxPoint x="598" y="-70" />
            </Array>
          </mxGeometry>
        </mxCell>
        <mxCell id="g9GSSYHI3RNmdpma8yQ5-72" style="edgeStyle=orthogonalEdgeStyle;rounded=0;orthogonalLoop=1;jettySize=auto;html=1;entryX=0.364;entryY=0;entryDx=0;entryDy=0;entryPerimeter=0;startArrow=classic;startFill=1;endArrow=none;endFill=0;" edge="1" parent="1" source="g9GSSYHI3RNmdpma8yQ5-51" target="g9GSSYHI3RNmdpma8yQ5-42">
          <mxGeometry relative="1" as="geometry" />
        </mxCell>
        <mxCell id="g9GSSYHI3RNmdpma8yQ5-51" value="$$\alpha(2)$$" style="text;html=1;strokeColor=none;fillColor=none;align=center;verticalAlign=middle;whiteSpace=wrap;rounded=0;fontStyle=1;fontSize=20;" vertex="1" parent="1">
          <mxGeometry x="490" width="60" height="30" as="geometry" />
        </mxCell>
        <mxCell id="g9GSSYHI3RNmdpma8yQ5-57" style="edgeStyle=orthogonalEdgeStyle;rounded=0;orthogonalLoop=1;jettySize=auto;html=1;entryX=0.5;entryY=1;entryDx=0;entryDy=0;" edge="1" parent="1" source="g9GSSYHI3RNmdpma8yQ5-52" target="g9GSSYHI3RNmdpma8yQ5-54">
          <mxGeometry relative="1" as="geometry">
            <Array as="points">
              <mxPoint x="680" y="-70" />
              <mxPoint x="598" y="-70" />
            </Array>
          </mxGeometry>
        </mxCell>
        <mxCell id="g9GSSYHI3RNmdpma8yQ5-73" style="edgeStyle=orthogonalEdgeStyle;rounded=0;orthogonalLoop=1;jettySize=auto;html=1;entryX=0.637;entryY=-0.055;entryDx=0;entryDy=0;entryPerimeter=0;startArrow=classic;startFill=1;endArrow=none;endFill=0;" edge="1" parent="1" source="g9GSSYHI3RNmdpma8yQ5-52" target="g9GSSYHI3RNmdpma8yQ5-42">
          <mxGeometry relative="1" as="geometry" />
        </mxCell>
        <mxCell id="g9GSSYHI3RNmdpma8yQ5-52" value="$$\alpha(t)$$" style="text;html=1;strokeColor=none;fillColor=none;align=center;verticalAlign=middle;whiteSpace=wrap;rounded=0;fontStyle=1;fontSize=20;" vertex="1" parent="1">
          <mxGeometry x="650" width="60" height="30" as="geometry" />
        </mxCell>
        <mxCell id="g9GSSYHI3RNmdpma8yQ5-58" style="edgeStyle=orthogonalEdgeStyle;rounded=0;orthogonalLoop=1;jettySize=auto;html=1;entryX=0.5;entryY=1;entryDx=0;entryDy=0;" edge="1" parent="1" source="g9GSSYHI3RNmdpma8yQ5-53" target="g9GSSYHI3RNmdpma8yQ5-54">
          <mxGeometry relative="1" as="geometry">
            <Array as="points">
              <mxPoint x="840" y="-70" />
              <mxPoint x="598" y="-70" />
            </Array>
          </mxGeometry>
        </mxCell>
        <mxCell id="g9GSSYHI3RNmdpma8yQ5-75" style="edgeStyle=orthogonalEdgeStyle;rounded=0;orthogonalLoop=1;jettySize=auto;html=1;entryX=0.908;entryY=0;entryDx=0;entryDy=0;entryPerimeter=0;startArrow=classic;startFill=1;endArrow=none;endFill=0;" edge="1" parent="1" source="g9GSSYHI3RNmdpma8yQ5-53" target="g9GSSYHI3RNmdpma8yQ5-42">
          <mxGeometry relative="1" as="geometry" />
        </mxCell>
        <mxCell id="g9GSSYHI3RNmdpma8yQ5-53" value="$$\alpha(T_x)$$" style="text;html=1;strokeColor=none;fillColor=none;align=center;verticalAlign=middle;whiteSpace=wrap;rounded=0;fontStyle=1;fontSize=20;" vertex="1" parent="1">
          <mxGeometry x="810" width="60" height="30" as="geometry" />
        </mxCell>
        <mxCell id="g9GSSYHI3RNmdpma8yQ5-61" style="edgeStyle=orthogonalEdgeStyle;rounded=0;orthogonalLoop=1;jettySize=auto;html=1;entryX=0.5;entryY=1;entryDx=0;entryDy=0;" edge="1" parent="1" source="g9GSSYHI3RNmdpma8yQ5-54" target="g9GSSYHI3RNmdpma8yQ5-60">
          <mxGeometry relative="1" as="geometry" />
        </mxCell>
        <mxCell id="g9GSSYHI3RNmdpma8yQ5-54" value="&lt;font style=&quot;font-size: 18px;&quot;&gt;&lt;b&gt;DOT&lt;/b&gt;&lt;/font&gt;" style="rounded=0;whiteSpace=wrap;html=1;" vertex="1" parent="1">
          <mxGeometry x="563.75" y="-160" width="67.5" height="55" as="geometry" />
        </mxCell>
        <mxCell id="g9GSSYHI3RNmdpma8yQ5-59" value="&lt;font style=&quot;font-size: 22px;&quot;&gt;DECODER&lt;/font&gt;" style="text;html=1;strokeColor=none;fillColor=none;align=center;verticalAlign=middle;whiteSpace=wrap;rounded=0;fontStyle=1" vertex="1" parent="1">
          <mxGeometry x="515" y="-360" width="170" height="30" as="geometry" />
        </mxCell>
        <mxCell id="g9GSSYHI3RNmdpma8yQ5-70" style="edgeStyle=orthogonalEdgeStyle;rounded=0;orthogonalLoop=1;jettySize=auto;html=1;entryX=0;entryY=0.5;entryDx=0;entryDy=0;" edge="1" parent="1" source="g9GSSYHI3RNmdpma8yQ5-60" target="g9GSSYHI3RNmdpma8yQ5-69">
          <mxGeometry relative="1" as="geometry" />
        </mxCell>
        <mxCell id="g9GSSYHI3RNmdpma8yQ5-60" value="&lt;b style=&quot;border-color: var(--border-color); font-size: 18px;&quot;&gt;LSTM&lt;/b&gt;" style="rounded=0;whiteSpace=wrap;html=1;" vertex="1" parent="1">
          <mxGeometry x="537.5" y="-310" width="120" height="60" as="geometry" />
        </mxCell>
        <mxCell id="g9GSSYHI3RNmdpma8yQ5-67" value="&lt;span style=&quot;color: rgb(0, 0, 0); font-family: Helvetica; font-size: 20px; font-style: normal; font-variant-ligatures: normal; font-variant-caps: normal; font-weight: 700; letter-spacing: normal; orphans: 2; text-align: center; text-indent: 0px; text-transform: none; widows: 2; word-spacing: 0px; -webkit-text-stroke-width: 0px; background-color: rgb(251, 251, 251); text-decoration-thickness: initial; text-decoration-style: initial; text-decoration-color: initial; float: none; display: inline !important;&quot;&gt;$$h(1),...,h(T_x)$$&lt;/span&gt;" style="text;whiteSpace=wrap;html=1;" vertex="1" parent="1">
          <mxGeometry x="1040" y="95" width="110" height="50" as="geometry" />
        </mxCell>
        <mxCell id="g9GSSYHI3RNmdpma8yQ5-68" value="&lt;font style=&quot;font-size: 18px;&quot;&gt;CONTEXT&lt;/font&gt;" style="text;html=1;strokeColor=none;fillColor=none;align=center;verticalAlign=middle;whiteSpace=wrap;rounded=0;fontStyle=1" vertex="1" parent="1">
          <mxGeometry x="585" y="-200" width="125" height="30" as="geometry" />
        </mxCell>
        <mxCell id="g9GSSYHI3RNmdpma8yQ5-69" value="$$s(t)$$" style="text;html=1;strokeColor=none;fillColor=none;align=center;verticalAlign=middle;whiteSpace=wrap;rounded=0;fontStyle=1;fontSize=20;" vertex="1" parent="1">
          <mxGeometry x="1040" y="-295" width="60" height="30" as="geometry" />
        </mxCell>
      </root>
    </mxGraphModel>
  </diagram>
</mxfile>
